<?xml version="1.0" encoding="utf-8"?>
<!-- Generator: Adobe Illustrator 26.2.1, SVG Export Plug-In . SVG Version: 6.00 Build 0)  -->
<svg version="1.1" id="Layer_1" xmlns="http://www.w3.org/2000/svg" xmlns:xlink="http://www.w3.org/1999/xlink" x="0px" y="0px"
	 viewBox="0 0 560.3 128" style="enable-background:new 0 0 560.3 128;" xml:space="preserve">
<style type="text/css">
	.st0{fill:#35343A;}
	.st1{fill-rule:evenodd;clip-rule:evenodd;fill:url(#SVGID_1_);}
	.st2{fill-rule:evenodd;clip-rule:evenodd;fill:url(#SVGID_00000128443669644600394380000004370245353590512798_);}
	.st3{fill-rule:evenodd;clip-rule:evenodd;fill:url(#SVGID_00000183937485053437914880000010937420469282482607_);}
	.st4{fill-rule:evenodd;clip-rule:evenodd;fill:url(#SVGID_00000052078104172268272720000009150097011024886916_);}
	.st5{fill-rule:evenodd;clip-rule:evenodd;fill:url(#SVGID_00000009578653078819976210000004126575336218976129_);}
	.st6{opacity:0.79;fill-rule:evenodd;clip-rule:evenodd;fill:url(#SVGID_00000013892203693204514650000017657829290516670375_);}
	.st7{fill-rule:evenodd;clip-rule:evenodd;fill:url(#SVGID_00000157298963028183273460000002265482066351349385_);}
	.st8{fill-rule:evenodd;clip-rule:evenodd;fill:url(#SVGID_00000000210139208309222820000002886503110858292128_);}
	.st9{opacity:0.79;fill-rule:evenodd;clip-rule:evenodd;fill:url(#SVGID_00000182520643006958558750000002293837097152554380_);}
	.st10{fill-rule:evenodd;clip-rule:evenodd;fill:url(#SVGID_00000047040924733038293550000007310740267918731174_);}
	.st11{opacity:0.5;fill-rule:evenodd;clip-rule:evenodd;fill:#7C4F90;}
	.st12{opacity:0.58;fill-rule:evenodd;clip-rule:evenodd;fill:url(#SVGID_00000049916848931417204670000009585125281771797122_);}
	.st13{fill-rule:evenodd;clip-rule:evenodd;fill:url(#SVGID_00000124144039928135428690000005824930483573721232_);}
	.st14{opacity:0.58;fill-rule:evenodd;clip-rule:evenodd;fill:url(#SVGID_00000119838087108860945430000004238479873895368634_);}
	.st15{fill:url(#SVGID_00000122001542814529836240000010862404737260996520_);}
	.st16{opacity:0.79;fill-rule:evenodd;clip-rule:evenodd;fill:url(#SVGID_00000170974398247933575300000016246920866337149056_);}
	.st17{fill-rule:evenodd;clip-rule:evenodd;fill:url(#SVGID_00000096025146611659055590000001368075090425481657_);}
	.st18{fill-rule:evenodd;clip-rule:evenodd;fill:url(#SVGID_00000046331042725802023500000015981783045569983380_);}
	.st19{fill-rule:evenodd;clip-rule:evenodd;fill:url(#SVGID_00000164488721182945673850000007346278078984470967_);}
	.st20{fill-rule:evenodd;clip-rule:evenodd;fill:url(#SVGID_00000168092927239293813890000003196475002106204051_);}
	.st21{fill-rule:evenodd;clip-rule:evenodd;fill:url(#SVGID_00000181078483523267745400000014858796100817500826_);}
	.st22{fill-rule:evenodd;clip-rule:evenodd;fill:#4F5195;}
	.st23{fill-rule:evenodd;clip-rule:evenodd;fill:url(#SVGID_00000027577453489575882680000012594635148747906451_);}
	.st24{fill-rule:evenodd;clip-rule:evenodd;fill:url(#SVGID_00000029762866280744080580000017860685353767923617_);}
	.st25{fill-rule:evenodd;clip-rule:evenodd;fill:url(#SVGID_00000006676602206649816450000016959031136663934869_);}
	.st26{fill-rule:evenodd;clip-rule:evenodd;fill:#A19DDD;}
	.st27{fill-rule:evenodd;clip-rule:evenodd;fill:url(#SVGID_00000179643480718593082400000004743834704034683317_);}
	.st28{fill-rule:evenodd;clip-rule:evenodd;fill:url(#SVGID_00000002343531698091173510000013909228188151564197_);}
	.st29{fill-rule:evenodd;clip-rule:evenodd;fill:#180833;}
	.st30{fill-rule:evenodd;clip-rule:evenodd;fill:#220D33;}
	.st31{fill-rule:evenodd;clip-rule:evenodd;fill:#B64F6D;}
	.st32{fill-rule:evenodd;clip-rule:evenodd;fill:#FFFFFF;}
	.st33{fill-rule:evenodd;clip-rule:evenodd;fill:url(#SVGID_00000171680038094672387500000011285237899517666988_);}
	.st34{fill-rule:evenodd;clip-rule:evenodd;fill:#B5526F;}
	.st35{opacity:0.58;fill-rule:evenodd;clip-rule:evenodd;fill:url(#SVGID_00000173122207678376677210000005759803653669561017_);}
	.st36{opacity:0.58;fill-rule:evenodd;clip-rule:evenodd;fill:url(#SVGID_00000176721329465220862600000002499936540680557196_);}
	.st37{opacity:0.79;fill-rule:evenodd;clip-rule:evenodd;fill:url(#SVGID_00000055682088414665061100000017818145506575470489_);}
	.st38{fill-rule:evenodd;clip-rule:evenodd;fill:url(#SVGID_00000050640473775885047940000001798394462124050308_);}
	.st39{opacity:0.58;fill-rule:evenodd;clip-rule:evenodd;fill:url(#SVGID_00000122698570408522142950000010012357587239784116_);}
	.st40{opacity:0.79;fill-rule:evenodd;clip-rule:evenodd;fill:url(#SVGID_00000052095078244700878560000006788421843396673689_);}
	.st41{fill-rule:evenodd;clip-rule:evenodd;fill:url(#SVGID_00000171696695016380735800000000274955909530079118_);}
	.st42{fill-rule:evenodd;clip-rule:evenodd;fill:#FF63B8;}
	.st43{fill:#FFFFFF;}
</style>
<g>
	<path class="st0" d="M147.9,88.6l11.5-49.8h16.5l0.5,29.5h1.4l14.2-29.5h17.6L198,88.6h-11l8.1-35.1H194l-14,28.6h-11.1l-0.7-28.6
		h-1.2l-8.1,35.1H147.9z"/>
	<path class="st0" d="M211.9,88.6l-5-6.5l2.7-11.6l6.8-5.5H231l0.7-3.1l-1.1-1.4h-15.2l1.9-8.2h20.1l5.4,7l-6.8,29.3h-8.4l0.6-2.6
		h-0.8l-3.6,2.6H211.9z M218.6,80.5h6.8l2.3-1.6l1.6-7h-8.5l-1.4,1.1l-1.6,6.7L218.6,80.5z"/>
	<path class="st0" d="M241.5,102.8l2-8.6h17l1.4-1.1l1.5-6.4h-0.4l-2.7,1.8h-10l-6-7.8l5.1-22l8.1-6.5h24.5l-10.3,44.8l-7.2,5.8
		H241.5z M256.7,80h5.5l3-2l3.9-17h-8l-2.3,1.8l-3.6,15.4L256.7,80z"/>
	<path class="st0" d="M280.6,88.6l8.4-36.3h10.7l-8.4,36.3H280.6z M290.3,46.7l1.8-7.8h10.5l-1.8,7.8H290.3z"/>
	<path class="st0" d="M305.6,88.6l-6-7.8l5.1-22l8.1-6.5h20.1l-2,8.7h-14.2l-2.3,1.8l-3.6,15.4l1.4,1.7h14.3l-2,8.7H305.6z"/>
	<path class="st0" d="M336.5,88.6l-6-7.8l5.1-22l8.1-6.5H361l6,7.8l-5,22l-8.1,6.6H336.5z M343.1,80h6.8l2.3-1.8l3.6-15.4l-1.3-1.7
		h-6.8l-2.3,1.8l-3.6,15.4L343.1,80z"/>
	<path class="st0" d="M367,88.6l8.4-36.3h8.5l-0.6,2.5h0.8l3.6-2.5h9.7l-2,8.9h-9l-2.6,1.8l-5.9,25.7H367z"/>
	<path class="st0" d="M392.1,88.6l8.4-36.3h8.5l-0.6,2.5h0.8l3.6-2.5H424l5.8,7.4l-6.7,28.9h-10.6l6-26.3l-1.1-1.4h-6l-2.6,1.8
		l-6,25.9H392.1z"/>
	<path class="st0" d="M447.8,88.6l2.1-9h7.2l7.4-31.9h-7.2l2.1-9h25.8l-2.1,9h-7.2l-7.3,31.9h7.2l-2.1,9H447.8z"/>
	<path class="st0" d="M479.9,88.6l8.4-36.3h8.5l-0.6,2.5h0.8l3.6-2.5h11.3l5.8,7.4l-6.7,28.9h-10.6l6-26.3l-1.1-1.4h-6l-2.6,1.8
		l-6,25.9H479.9z"/>
	<path class="st0" d="M524.8,88.6l-5.8-7.5l6.7-28.9h10.7l-6.1,26.3l1.1,1.4h5.3l2.6-1.8l6-25.9H556l-8.4,36.3h-8.4l0.6-2.5H539
		l-3.5,2.5H524.8z"/>
</g>
<g>
	<g>
		<linearGradient id="SVGID_1_" gradientUnits="userSpaceOnUse" x1="96.0051" y1="119.435" x2="31.9944" y2="8.5651">
			<stop  offset="0" style="stop-color:#111114"/>
			<stop  offset="1" style="stop-color:#303035"/>
		</linearGradient>
		<path class="st1" d="M128,64c0,14.7-4.9,28.2-13.3,39c0,0.1-0.1,0.1-0.2,0.2c-0.1,0.1-0.1,0.1-0.2,0.2c0,0,0,0,0,0
			c-0.9,1.1-1.8,2.2-2.8,3.3c0,0-0.1,0.1-0.1,0.1c-0.5,0.5-0.9,1-1.4,1.5c-0.3,0.3-0.6,0.6-0.9,0.9c-3.2,3.2-6.7,6.1-10.6,8.5
			c-0.2,0.2-0.5,0.3-0.7,0.4c-0.2,0.1-0.4,0.3-0.6,0.4c0,0,0,0,0,0c-3.6,2.2-7.4,4-11.4,5.5c-0.8,0.3-1.6,0.6-2.3,0.8
			c-6.2,2-12.8,3.1-19.6,3.1c-0.7,0-1.5,0-2.2,0c-0.9,0-1.7-0.1-2.6-0.1c-0.8-0.1-1.6-0.1-2.4-0.2c-0.9-0.1-1.7-0.2-2.6-0.3
			c-0.5-0.1-0.9-0.1-1.4-0.2c-3.8-0.7-7.5-1.7-11.1-3c-0.6-0.2-1.3-0.5-1.9-0.7c-0.4-0.2-0.9-0.4-1.3-0.6c-0.9-0.4-1.8-0.8-2.7-1.3
			c-0.7-0.3-1.4-0.7-2.1-1.1c-0.2-0.1-0.3-0.2-0.5-0.3c-0.2-0.1-0.4-0.2-0.5-0.3c-1.1-0.6-2.2-1.3-3.2-1.9c0,0,0,0,0,0
			c-0.3-0.2-0.7-0.4-1-0.7C11.3,105.7,0,86.2,0,64C0,28.7,28.7,0,64,0C99.3,0,128,28.7,128,64z"/>
		
			<linearGradient id="SVGID_00000124852331478189532680000005037815314530386849_" gradientUnits="userSpaceOnUse" x1="50.5619" y1="127.2704" x2="50.5619" y2="112.4582">
			<stop  offset="3.351960e-02" style="stop-color:#84A1FF"/>
			<stop  offset="0.9829" style="stop-color:#5B72EC"/>
		</linearGradient>
		<path style="fill-rule:evenodd;clip-rule:evenodd;fill:url(#SVGID_00000124852331478189532680000005037815314530386849_);" d="
			M59.3,112.5C59.3,112.5,59.3,112.5,59.3,112.5c-0.1,0.3-1.6,3.2-3.1,7.8c-0.7,2-1.3,4.4-1.9,7c-0.5-0.1-0.9-0.1-1.4-0.2
			c-3.8-0.7-7.5-1.7-11.1-3c0.5-0.4,0.9-0.7,1.4-1.1c0.5-0.4,1-0.9,1.5-1.3c3.5-2.9,6.6-5,9-6.5c2.5-1.5,4.3-2.3,5.1-2.6l0,0
			C59.1,112.5,59.2,112.5,59.3,112.5C59.3,112.5,59.3,112.5,59.3,112.5z"/>
		
			<linearGradient id="SVGID_00000082355310276271985380000000288243985724570275_" gradientUnits="userSpaceOnUse" x1="51.2819" y1="117.879" x2="51.2819" y2="90.1299">
			<stop  offset="1.711450e-02" style="stop-color:#FFA451"/>
			<stop  offset="0.9665" style="stop-color:#FF515E"/>
		</linearGradient>
		<path style="fill-rule:evenodd;clip-rule:evenodd;fill:url(#SVGID_00000082355310276271985380000000288243985724570275_);" d="
			M74.1,90.1l-1.6,2.4l0,0l-0.2,0.2l-0.6,0.9l-0.2,0.2L70.8,95l-0.3,0.4l-3.2,4.8l0,0c0,0,0,0,0,0c-0.2,0.2-2.6,3.1-6.7,3.7
			c-1.2,0.2-3.1,0.3-5.5,0.4c-2.2,0.1-4.7,0.3-7.2,0.7c-0.1,0-0.1,0-0.2,0c1.1-1.1,2.1-2,3.1-2.7c-1.3,0.1-2.5,0-3.1-0.2
			c-1.2,0.9-7.7,2.1-11.1,5c-3.1,2.6-6,8-7.3,10.7c-0.3-0.2-0.7-0.4-1-0.7c1.3-3.7,3.5-8.2,7.2-11.9c1.7-1.6,3.6-2.8,5.6-3.7
			c0,0,0,0,0,0c1.3-0.5,2.6-1,3.9-1.3c4.2-1.1,8.7-1.3,12.6-1.7c0.7-0.1,1.4-0.2,2-0.3c0,0,0,0,0,0c0.4-0.1,0.7-0.1,1.1-0.2h0
			c1.1-0.2,2.1-0.5,3-0.8c3.3-1.3,5.8-3,7.5-4.5c0.2-0.1,0.3-0.3,0.5-0.4C73.2,91.2,74,90.3,74.1,90.1z"/>
		
			<linearGradient id="SVGID_00000096044650952904046240000011737614341588758401_" gradientUnits="userSpaceOnUse" x1="50.0083" y1="127.049" x2="50.0083" y2="102.8992">
			<stop  offset="3.351960e-02" style="stop-color:#D36FFF"/>
			<stop  offset="0.9829" style="stop-color:#A240EC"/>
		</linearGradient>
		<path style="fill-rule:evenodd;clip-rule:evenodd;fill:url(#SVGID_00000096044650952904046240000011737614341588758401_);" d="
			M66.2,102.9c-0.3,0.7-0.6,1.5-0.9,2.2c0,0.1-0.1,0.2-0.1,0.3l0,0c0,0,0,0,0,0l-0.8,1.8l0,0c0,0-0.6,0.4-1.5,1.1c0,0,0,0,0,0
			c0,0,0,0,0,0c0,0,0,0-0.1,0c0,0,0,0-0.1,0.1c0,0-0.1,0.1-0.2,0.2c0,0,0,0-0.1,0.1c-0.1,0.1-0.2,0.2-0.3,0.3c0,0-0.1,0.1-0.2,0.1
			c0,0-0.1,0.1-0.1,0.1c0,0-0.1,0.1-0.1,0.1c0,0,0,0,0,0c0,0-0.1,0.1-0.1,0.1c-0.4,0.5-0.9,1-1.4,1.6c0,0,0,0,0,0
			c-0.1,0.1-0.2,0.2-0.2,0.3c-0.1,0.1-0.2,0.2-0.2,0.3c-0.2,0.2-0.3,0.4-0.5,0.7c0,0,0,0,0,0c-0.5,0.7-0.9,1.4-1.4,2.2
			c-0.1,0.3-0.3,0.5-0.4,0.8c0,0,0,0,0,0.1c0,0.1-0.1,0.2-0.1,0.3c-0.8,1.5-1.5,3.2-2.1,5.1c-0.8,2.3-1.4,4.3-2.2,6.1
			c-3.8-0.7-7.5-1.7-11.1-3c-0.6-0.2-1.3-0.5-1.9-0.7c-0.4-0.2-0.9-0.4-1.3-0.6c-0.9-0.4-1.8-0.8-2.7-1.3c-0.7-0.3-1.4-0.7-2.1-1.1
			c3.2-1.6,6.4-3.4,9.6-5.1c4.6-2.4,9-4.8,12.7-6.9C62.1,105.2,66.2,102.9,66.2,102.9z"/>
		
			<linearGradient id="SVGID_00000011031652491581709180000003041854499543599551_" gradientUnits="userSpaceOnUse" x1="50.6349" y1="123.3293" x2="50.6349" y2="97.3811">
			<stop  offset="1.711450e-02" style="stop-color:#FF7288"/>
			<stop  offset="0.9665" style="stop-color:#FF11A1"/>
		</linearGradient>
		<path style="fill-rule:evenodd;clip-rule:evenodd;fill:url(#SVGID_00000011031652491581709180000003041854499543599551_);" d="
			M68.6,97.4l-1.2,2.9l0,0l-0.1,0.2c0,0.1-0.1,0.1-0.1,0.2c-0.3,0.7-0.6,1.5-0.9,2.2c-0.3,0.7-0.6,1.5-0.9,2.2
			c0,0.1-0.1,0.2-0.1,0.3l0,0c0,0,0,0,0,0c-0.2,0.1-3.8,1.8-6.4,7.2l0,0c-0.2,0.4-0.4,0.8-0.6,1.3c-0.1,0.2-0.2,0.4-0.3,0.7
			c0,0,0,0.1-0.1,0.1c-0.1,0.3-0.3,0.5-0.4,0.8c0,0,0,0,0,0.1c0,0.1-0.1,0.2-0.1,0.3c-2.5,4.1-7.1,6.1-14,7.1
			c-1,0.1-2.1,0.3-3.3,0.4c-0.4-0.2-0.9-0.4-1.3-0.6c-0.9-0.4-1.8-0.8-2.7-1.3c-0.7-0.3-1.4-0.7-2.1-1.1c-0.2-0.1-0.3-0.2-0.5-0.3
			c-0.2-0.1-0.4-0.2-0.5-0.3c0.4-0.3,0.9-0.6,1.3-0.8c5.3-3.4,9.6-9.5,13.4-13.5h0c0.1-0.1,0.3-0.3,0.4-0.4c1.1-1.1,2.1-2,3.1-2.7
			c0,0,0,0,0,0c0.1-0.1,0.2-0.1,0.3-0.2c0,0,0,0,0,0c0.2-0.1,0.3-0.2,0.5-0.3c2.4-1.4,5-2.3,7.4-3c0,0,0,0,0,0
			c0.5-0.1,1-0.3,1.4-0.4c2-0.5,3.7-0.7,5.1-0.9h0C67.4,97.4,68.5,97.4,68.6,97.4C68.5,97.4,68.6,97.4,68.6,97.4z"/>
		
			<linearGradient id="SVGID_00000088095806362692541620000006853243924922818495_" gradientUnits="userSpaceOnUse" x1="55.2531" y1="127.2704" x2="55.2531" y2="92.4019">
			<stop  offset="0" style="stop-color:#FFFFFF"/>
			<stop  offset="0.9944" style="stop-color:#943BAC"/>
		</linearGradient>
		
			<path style="opacity:0.79;fill-rule:evenodd;clip-rule:evenodd;fill:url(#SVGID_00000088095806362692541620000006853243924922818495_);" d="
			M71.9,92.4l-0.1,0.4l-0.1,0.5l-0.1,0.4l0,0.2L70.8,95l-0.3,0.4l-3.2,4.8l0,0l-0.1,0.2c0,0.1-0.1,0.1-0.1,0.2
			c-0.3,0.7-0.6,1.5-0.9,2.2l0,0l-0.9,2.2c0,0.1-0.1,0.2-0.1,0.3l0,0c0,0,0,0,0,0l-0.8,1.8l0,0c0,0-0.6,0.4-1.5,1.1c0,0,0,0,0,0
			c0,0,0,0,0,0c0,0,0,0-0.1,0c0,0,0,0-0.1,0.1c0,0-0.1,0.1-0.2,0.2c0,0,0,0-0.1,0.1c-0.1,0.1-0.2,0.2-0.3,0.3c0,0-0.1,0.1-0.2,0.1
			c0,0-0.1,0.1-0.1,0.1c0,0-0.1,0.1-0.1,0.1c0,0,0,0,0,0c0,0-0.1,0.1-0.1,0.1c-0.4,0.5-0.9,1-1.4,1.6c0,0,0,0,0,0
			c-0.1,0.1-0.2,0.2-0.2,0.3c-0.1,0.1-0.2,0.2-0.2,0.3c-0.2,0.2-0.3,0.4-0.5,0.7c0,0,0,0,0,0c-0.1,0.3-1.6,3.2-3.1,7.8
			c-0.7,2-1.3,4.4-1.9,7c-0.5-0.1-0.9-0.1-1.4-0.2c-3.8-0.7-7.5-1.7-11.1-3c-0.6-0.2-1.3-0.5-1.9-0.7c-0.4-0.2-0.9-0.4-1.3-0.6
			c2.2-0.3,4.3-0.6,6.1-1.1c1.9-0.5,3.6-1.1,4.9-2c1.6-1.1,3-2.7,4.1-4.5c1.3-2.2,2.1-4.7,2.4-6.7c0.2-1.9,0-3.5-0.8-4
			c0,0-0.1-0.1-0.1-0.1c-2.4-1.6-7.2,0.7-7.2,0.7s-0.2,0.2-0.6,0.4c0.1-0.1,0.3-0.3,0.4-0.4c1.1-1.1,2.1-2,3.1-2.7
			c-1.3,0.1-2.5,0-3.1-0.2c0,0,0,0,0,0c0,0,0.1-0.1,0.1-0.1c0,0,0-0.1,0.1-0.1c0-0.1,0-0.2-0.2-0.4c-0.4-0.3-1-0.4-1.6-0.5
			c-2-0.2-4.6,0.4-4.8,0.4c1.3-0.5,2.6-1,3.9-1.3c4.2-1.1,8.7-1.3,12.6-1.7c0.7-0.1,1.4-0.2,2-0.3c0,0,0,0,0,0
			c0.4-0.1,0.7-0.1,1.1-0.2h0c1.1-0.2,2.1-0.5,3-0.8c3.3-1.3,5.8-3,7.5-4.5C71.6,92.7,71.7,92.5,71.9,92.4z"/>
		
			<linearGradient id="SVGID_00000138564653975896326070000006944069155553562010_" gradientUnits="userSpaceOnUse" x1="59.5507" y1="127.8246" x2="59.5507" y2="108.3712">
			<stop  offset="1.711450e-02" style="stop-color:#5BC9EC"/>
			<stop  offset="0.9665" style="stop-color:#84A1FF"/>
		</linearGradient>
		<path style="fill-rule:evenodd;clip-rule:evenodd;fill:url(#SVGID_00000138564653975896326070000006944069155553562010_);" d="
			M58.2,123c0.3,1.6,0.7,3.3,1,4.9c-0.8-0.1-1.6-0.1-2.4-0.2c-0.1-2.8-0.7-5.1-0.7-7.3c0-1.4,0.2-2.9,1.1-4.5c0-0.1,0.1-0.2,0.1-0.2
			c0,0,0,0,0-0.1c0.2-0.3,0.3-0.6,0.5-0.9c0.4-0.8,0.9-1.5,1.4-2.1c0.2-0.2,0.3-0.5,0.5-0.7c0.1-0.1,0.2-0.2,0.2-0.3
			c0.1-0.1,0.2-0.2,0.2-0.3c0,0,0,0,0,0c0.5-0.7,1-1.2,1.4-1.6c0,0,0.1-0.1,0.1-0.1c0,0,0,0,0,0l0.1-0.1c0,0,0.1-0.1,0.1-0.1
			c0.1-0.1,0.1-0.1,0.2-0.1c0.1-0.1,0.2-0.2,0.3-0.3c0,0,0,0,0.1-0.1c0.1-0.1,0.1-0.1,0.2-0.2c0,0,0,0,0.1-0.1c0,0,0,0,0.1,0
			c0,0,0,0,0,0c0,0,0,0,0,0c0,0,0,0,0,0C62.7,108.6,56.9,116,58.2,123z"/>
		
			<linearGradient id="SVGID_00000034065041840667958890000011265978718443631745_" gradientUnits="userSpaceOnUse" x1="46.3245" y1="61.295" x2="46.3245" y2="40.1012">
			<stop  offset="1.711450e-02" style="stop-color:#FF7288"/>
			<stop  offset="0.9665" style="stop-color:#FF11A1"/>
		</linearGradient>
		<path style="fill-rule:evenodd;clip-rule:evenodd;fill:url(#SVGID_00000034065041840667958890000011265978718443631745_);" d="
			M52.3,47.9c-5.8,4.7-8.2,13.4-8.2,13.4s0,0,0,0c0,0,0,0,0-0.1c-0.6-1-5.7-9.3-2.9-13.6c0.3-0.4,0.6-0.8,1-1.1
			c3.6-2.8,5.4-4.9,6.1-5.9c0.3-0.4,0.4-0.6,0.4-0.6l2.3,4.8L52.3,47.9z"/>
		
			<linearGradient id="SVGID_00000138555255849840785510000012046380683033975712_" gradientUnits="userSpaceOnUse" x1="46.739" y1="61.295" x2="46.739" y2="40.6871">
			<stop  offset="0" style="stop-color:#FFFFFF"/>
			<stop  offset="0.9944" style="stop-color:#8259AC"/>
		</linearGradient>
		
			<path style="opacity:0.79;fill-rule:evenodd;clip-rule:evenodd;fill:url(#SVGID_00000138555255849840785510000012046380683033975712_);" d="
			M52.3,47.9c-5.8,4.7-8.2,13.4-8.2,13.4s0,0,0,0c0,0,0,0,0-0.1c-0.2-0.5-0.9-2.4,0.1-6.5c1.1-4.8,4-9.3,1.7-9.1
			c-2.3,0.2-4.8,2.1-4.8,2.1c0.3-0.4,0.6-0.8,1-1.1c3.6-2.8,5.4-4.9,6.1-5.9l2.7,4.2L52.3,47.9z"/>
		
			<linearGradient id="SVGID_00000085231630640283147770000008354094906183419541_" gradientUnits="userSpaceOnUse" x1="85.5297" y1="128" x2="85.5297" y2="67.1181">
			<stop  offset="1.711450e-02" style="stop-color:#E4DEEC"/>
			<stop  offset="1" style="stop-color:#CFBFEB"/>
		</linearGradient>
		<path style="fill-rule:evenodd;clip-rule:evenodd;fill:url(#SVGID_00000085231630640283147770000008354094906183419541_);" d="
			M110.1,108.4c-0.3,0.3-0.6,0.6-0.9,0.9c-3.2,3.2-6.7,6.1-10.6,8.5c-0.2,0.2-0.5,0.3-0.7,0.4c-0.2,0.1-0.4,0.3-0.6,0.4c0,0,0,0,0,0
			c-3.6,2.2-7.4,4-11.4,5.5c-0.8,0.3-1.6,0.6-2.3,0.8c-6.2,2-12.8,3.1-19.6,3.1c-0.7,0-1.5,0-2.2,0c-0.9-3.7-1.1-7.6-0.8-10.1
			c0.4-3.5,1.1-5.3,3.3-10.6l0,0c0.2-0.6,0.5-1.2,0.8-1.8l0,0c0-0.1,0.1-0.2,0.1-0.3c0.3-0.7,0.6-1.5,0.9-2.2
			c0.3-0.8,0.6-1.5,0.9-2.2c0-0.1,0.1-0.1,0.1-0.2c0-0.1,0.1-0.1,0.1-0.2c0.4-1,0.9-2,1.2-2.9c0.3-0.8,0.6-1.4,0.8-1.9
			c0.3-0.7,0.5-1.1,0.5-1.1c0.4-0.1,0.8-0.2,1.2-0.4h0c0.2-0.1,0.4-0.1,0.6-0.2c0,0,0.1,0,0.1,0c0.8-0.3,1.6-0.6,2.4-1c0,0,0,0,0,0
			c5.3-2.6,9.7-6.7,13.2-10.9c0,0,0,0,0,0c2.6-3.2,4.7-6.4,6.2-9v0c1.9-3.3,2.9-5.7,2.9-5.7s0.3,0.8,0.8,2.2
			c0.1,0.2,0.1,0.3,0.2,0.5c0,0,0,0,0,0c0.1,0.2,0.1,0.4,0.2,0.5c0.9,2.3,2.1,5.7,3.5,9.6c0.2,0.4,0.3,0.9,0.5,1.3v0
			c0.3,0.9,0.6,1.8,1,2.8c0,0.1,0,0.1,0.1,0.2c0.2,0.5,0.3,1,0.5,1.5c0,0.1,0,0.1,0.1,0.2c0.2,0.7,0.5,1.4,0.7,2
			c0.7,2.1,1.4,4.1,2.1,6.2c0.6,1.9,1.2,3.9,1.8,5.7c0.9,3,1.7,5.7,2.2,8C110,108,110.1,108.2,110.1,108.4z"/>
		<path class="st11" d="M69.5,95.4c0,0,12.4,0.8,20.9,0c8.5-0.8,11.6-16,11.6-16l-4-10.8L69.5,95.4z"/>
		
			<linearGradient id="SVGID_00000069392993493164751360000003824292239998970763_" gradientUnits="userSpaceOnUse" x1="88.1798" y1="124.1344" x2="88.1798" y2="67.1181">
			<stop  offset="0" style="stop-color:#FFFFFF"/>
			<stop  offset="0.9944" style="stop-color:#8259AC"/>
		</linearGradient>
		
			<path style="opacity:0.58;fill-rule:evenodd;clip-rule:evenodd;fill:url(#SVGID_00000069392993493164751360000003824292239998970763_);" d="
			M110.1,108.4c-0.3,0.3-0.6,0.6-0.9,0.9c-3.2,3.2-6.7,6.1-10.6,8.5c-0.2,0.2-0.5,0.3-0.7,0.4c-0.2,0.1-0.4,0.3-0.6,0.4c0,0,0,0,0,0
			c-3.6,2.2-7.4,4-11.4,5.5c1.3-2.7,2.7-5.5,4-8c2.3-4.4,4.1-7.8,4.1-7.8c-13.3,2.9-27.8-5.5-27.8-5.5c0.3-0.8,0.6-1.5,0.9-2.2
			c0-0.1,0.1-0.1,0.1-0.2c0-0.1,0.1-0.1,0.1-0.2c0.4-1,0.9-2,1.2-2.9c0.3-0.8,0.6-1.4,0.8-1.9c0.3-0.7,0.5-1.1,0.5-1.1
			c0.4-0.1,0.8-0.2,1.2-0.4h0c0.2-0.1,0.4-0.1,0.6-0.2c0,0,0.1,0,0.1,0c0.8-0.3,1.6-0.6,2.4-1c0,0,0,0,0,0
			c5.3-2.6,9.7-6.7,13.2-10.9c0,0,0,0,0,0c2.6-3.2,4.7-6.4,6.2-9v0c1.9-3.3,2.9-5.7,2.9-5.7s0.3,0.8,0.8,2.2
			c0.1,0.2,0.1,0.3,0.2,0.5c0,0,0,0,0,0c0.1,0.2,0.1,0.4,0.2,0.5c0.9,2.3,2.1,5.7,3.5,9.6c0.2,0.4,0.3,0.9,0.5,1.3v0
			c0.3,0.9,0.6,1.8,1,2.8c0,0.1,0,0.1,0.1,0.2c0.2,0.5,0.3,1,0.5,1.5c0,0.1,0,0.1,0.1,0.2c0.2,0.7,0.5,1.4,0.7,2
			c0.7,2.1,1.4,4.1,2.1,6.2c0.6,1.9,1.2,3.9,1.8,5.7c0.9,3,1.7,5.7,2.2,8C110,108,110.1,108.2,110.1,108.4z"/>
		
			<linearGradient id="SVGID_00000005264185711052995360000003019643971198493334_" gradientUnits="userSpaceOnUse" x1="68.6254" y1="102.5439" x2="68.6254" y2="38.9778">
			<stop  offset="0" style="stop-color:#CFBFEB"/>
			<stop  offset="0.9829" style="stop-color:#E4DEEC"/>
		</linearGradient>
		<path style="fill-rule:evenodd;clip-rule:evenodd;fill:url(#SVGID_00000005264185711052995360000003019643971198493334_);" d="
			M88.7,90.4c-5.6,3.4-16.3,4-19.2,5.1c-3,1-8.3,6.2-11.2,6.9c-2.9,0.7-6.1-0.2-6.1-0.2s-3.6,0.5-4.8,0c-1.2-0.5-7.8-6.9-8.1-12.3
			c-0.3-4.8,6.1-9.6,6.4-11.9c0.3-2.3-2-11.5-1.4-17c0.5-5.5,8.2-16.9,19.3-20.2c15.2-4.5,30,0.7,33.4,14.2
			C100.4,68.3,95,86.4,88.7,90.4z"/>
		
			<linearGradient id="SVGID_00000088108566060116286950000011432528565694963590_" gradientUnits="userSpaceOnUse" x1="71.0909" y1="102.5439" x2="71.0909" y2="38.9778">
			<stop  offset="0" style="stop-color:#CAD6FF"/>
			<stop  offset="0.9944" style="stop-color:#9775BA"/>
		</linearGradient>
		
			<path style="opacity:0.58;fill-rule:evenodd;clip-rule:evenodd;fill:url(#SVGID_00000088108566060116286950000011432528565694963590_);" d="
			M88.7,90.4c-5.6,3.4-16.3,4-19.2,5.1c-3,1-8.3,6.2-11.2,6.9c-2.9,0.7-6.1-0.2-6.1-0.2s-3.6,0.5-4.8,0c10.1-1,14.4-6.9,16.6-8.4
			c2.2-1.5,17.6,0.2,20.7-4.6c3.1-4.8,6-19.6-0.8-26s-26-7.7-32-6.8c-4.6,0.7-7.6,4.5-7.6,4.5c0.5-5.5,8.2-16.9,19.3-20.2
			c15.2-4.5,30,0.7,33.4,14.2C100.4,68.3,95,86.4,88.7,90.4z"/>
		
			<linearGradient id="SVGID_00000164510826945243567610000007277252613648625831_" gradientUnits="userSpaceOnUse" x1="82.6696" y1="47.7755" x2="82.6696" y2="4.652" gradientTransform="matrix(0.9886 0.1507 -0.1424 0.9344 -25.9861 -6.3241)">
			<stop  offset="0" style="stop-color:#FF8757"/>
			<stop  offset="0.984" style="stop-color:#FFB34C"/>
		</linearGradient>
		<path style="fill:url(#SVGID_00000164510826945243567610000007277252613648625831_);" d="M64.6,46.1c0,0-4.6,7-13.4,5
			c0,0-4-3.9-3.2-9.8l0.1-0.8c0,0-5.7-3.1-3.8-12.7c0,0-5.4-9.8-3.8-19.5c0,0,0,0,0.1,0.1c0.9,0.6,7,4.9,6.9,10
			c0,0,10.6,5.2,7.8,13.3C55.4,31.7,64.5,39.2,64.6,46.1z"/>
		
			<linearGradient id="SVGID_00000033361332151070447610000018204309129583439750_" gradientUnits="userSpaceOnUse" x1="82.7363" y1="47.7755" x2="82.7363" y2="4.7237" gradientTransform="matrix(0.9886 0.1507 -0.1424 0.9344 -25.9861 -6.3241)">
			<stop  offset="0" style="stop-color:#FFFFFF"/>
			<stop  offset="0.9944" style="stop-color:#B10BAC"/>
		</linearGradient>
		
			<path style="opacity:0.79;fill-rule:evenodd;clip-rule:evenodd;fill:url(#SVGID_00000033361332151070447610000018204309129583439750_);" d="
			M64.6,46.1c0,0-4.6,7-13.4,5c0,0,10.2-4.8,9.6-9.8c-0.5-5-4.9-7.1-6.7-6.6c-1.8,0.4-6.2,6.6-6.2,6.6l0.1-0.8c0,0,6.4-7.9,5.8-12
			c-0.6-4.1-4.8-8.1-6.1-7.5c-1.3,0.6-3.2,6.1-3.4,6.7c0.2-0.9,2.5-9,1.8-12.4c-0.6-3.3-4.8-6.4-5.6-7c0.9,0.6,7,4.9,6.9,10
			c0,0,10.6,5.2,7.8,13.3C55.4,31.7,64.5,39.2,64.6,46.1z"/>
		
			<linearGradient id="SVGID_00000102517098971447702140000008488166294671777461_" gradientUnits="userSpaceOnUse" x1="83.5505" y1="112.8261" x2="83.5505" y2="85.8189" gradientTransform="matrix(0.9941 -0.1081 0.1081 0.9941 -0.6371 -49.0499)">
			<stop  offset="1.711450e-02" style="stop-color:#E4DEEC"/>
			<stop  offset="1" style="stop-color:#CFBFEB"/>
		</linearGradient>
		<path style="fill-rule:evenodd;clip-rule:evenodd;fill:url(#SVGID_00000102517098971447702140000008488166294671777461_);" d="
			M81.4,44.3c0,0,1.5-0.8,3.1-4.5c1.6-3.7,9.4-13.2,19.6-13.9c0,0-1.9,12-3.5,18.4c-1.6,6.4-7.9,10-10.2,10.3
			C88.1,54.8,80.7,54.6,81.4,44.3z"/>
		
			<linearGradient id="SVGID_00000048493917380969119970000002591786368461167779_" gradientUnits="userSpaceOnUse" x1="76.0342" y1="56.2849" x2="76.0342" y2="23.5699">
			<stop  offset="1.711450e-02" style="stop-color:#A272EC"/>
			<stop  offset="0.9665" style="stop-color:#D36FFF"/>
		</linearGradient>
		<path style="fill-rule:evenodd;clip-rule:evenodd;fill:url(#SVGID_00000048493917380969119970000002591786368461167779_);" d="
			M90.4,55.2c-7.9,3.4-25.6-1.5-27.5-7.7c-0.4-1.4-0.8-3.3-1-5.3c-0.7-6.5,0.1-14.7,3.2-16.7c4.1-2.5,9.3-1.9,9.3-1.9
			C79,29.1,84.3,34.4,84.8,35c-0.6-0.5-5.2-4.4-5.8-4.3c-0.6,0.1-4.9,4.7-1.3,14.5C81.3,54.9,90.4,55.2,90.4,55.2z"/>
		
			<linearGradient id="SVGID_00000178167482455397337560000011814380238067147403_" gradientUnits="userSpaceOnUse" x1="80.7156" y1="51.0257" x2="80.7156" y2="28.9187">
			<stop  offset="1.711450e-02" style="stop-color:#5B72EC"/>
			<stop  offset="0.9665" style="stop-color:#84A1FF"/>
		</linearGradient>
		<path style="fill-rule:evenodd;clip-rule:evenodd;fill:url(#SVGID_00000178167482455397337560000011814380238067147403_);" d="
			M86.4,36.6c0,0-4-4.2-7.6-7.3c-3.6-3.1-7.6,13.9,2.5,21.7c0,0-3.1-13-0.6-15.4c2.5-2.3,5,1.9,5,1.9L86.4,36.6z"/>
		
			<linearGradient id="SVGID_00000133502807174712971260000006590692363099751072_" gradientUnits="userSpaceOnUse" x1="39.6962" y1="56.6905" x2="39.6962" y2="41.086">
			<stop  offset="1.711450e-02" style="stop-color:#FFA451"/>
			<stop  offset="0.9665" style="stop-color:#FF515E"/>
		</linearGradient>
		<path style="fill-rule:evenodd;clip-rule:evenodd;fill:url(#SVGID_00000133502807174712971260000006590692363099751072_);" d="
			M47.9,41.1c0,0-0.7,1.6-8.7,3.2c-8,1.6-8.3,7.5-7.4,12.4c0,0,1.1-6,6-8.5C42.6,45.8,47.1,44.7,47.9,41.1z"/>
		
			<linearGradient id="SVGID_00000078723418478745987380000002970948197368972698_" gradientUnits="userSpaceOnUse" x1="114.5766" y1="103.4291" x2="114.5766" y2="102.5395">
			<stop  offset="1.711450e-02" style="stop-color:#FFA451"/>
			<stop  offset="0.9665" style="stop-color:#FF515E"/>
		</linearGradient>
		<path style="fill-rule:evenodd;clip-rule:evenodd;fill:url(#SVGID_00000078723418478745987380000002970948197368972698_);" d="
			M114.7,103c0,0.1-0.1,0.1-0.2,0.2c-0.1,0.1-0.1,0.1-0.2,0.2c0.1-0.3,0.2-0.5,0.2-0.7c0-0.1,0.1-0.2,0.1-0.2S114.7,102.7,114.7,103
			z"/>
		<path class="st22" d="M86.4,36.6c0,0-3.3-3.3-5.6-3.3c-3.1,0-0.2,14.4-0.2,14.4S83.7,40.4,86.4,36.6z"/>
		
			<linearGradient id="SVGID_00000157280311349775194050000016803672705687662999_" gradientUnits="userSpaceOnUse" x1="99.1498" y1="124.937" x2="99.1498" y2="73.8522">
			<stop  offset="3.351960e-02" style="stop-color:#D36FFF"/>
			<stop  offset="0.9829" style="stop-color:#A240EC"/>
		</linearGradient>
		<path style="fill-rule:evenodd;clip-rule:evenodd;fill:url(#SVGID_00000157280311349775194050000016803672705687662999_);" d="
			M114.6,102.7c0,0.2,0,0.3,0,0.5c-0.1,0.1-0.1,0.1-0.2,0.2c0,0,0,0,0,0c-0.9,1.1-1.8,2.2-2.8,3.3c0,0-0.1,0.1-0.1,0.1
			c-0.5,0.5-0.9,1-1.4,1.5c-0.3,0.3-0.6,0.6-0.9,0.9c-3.2,3.2-6.7,6.1-10.6,8.5c-0.2,0.2-0.5,0.3-0.7,0.4c-0.2,0.1-0.4,0.3-0.6,0.4
			c0,0,0,0,0,0c-3.6,2.2-7.4,4-11.4,5.5c-0.8,0.3-1.6,0.6-2.3,0.8c0.4-0.8,0.8-1.7,1.2-2.5c1.2-2.1,3-4.2,5-6.3
			c2.4-2.5,5.2-5.1,7.6-7.9c0,0,0,0,0,0c2.5-3,4.7-6.2,5.5-9.7c0.7-2.9,0.9-5.5,1-7.7c0-1,0-2,0-2.8c-0.1-1.4-0.2-2.6-0.4-3.5
			c0,0,0,0,0,0c0-0.1,0-0.2-0.1-0.3c0-0.1,0-0.2-0.1-0.3c-0.2-1.1-0.4-1.7-0.4-1.7l0.4-3.6v0l0.5-4.8c0,0,0,0,0,0
			c0.1,0.2,1,1.3,2.3,3.2c0.9,1.4,2,3.1,3.1,5.1c2,3.6,4,8.1,4.8,12.3C114.6,97.2,114.8,100,114.6,102.7z"/>
		
			<linearGradient id="SVGID_00000059274186806783542050000017403975216382643602_" gradientUnits="userSpaceOnUse" x1="101.6628" y1="118.6355" x2="101.6628" y2="81.0317">
			<stop  offset="1.711450e-02" style="stop-color:#FF7288"/>
			<stop  offset="0.9665" style="stop-color:#FF11A1"/>
		</linearGradient>
		<path style="fill-rule:evenodd;clip-rule:evenodd;fill:url(#SVGID_00000059274186806783542050000017403975216382643602_);" d="
			M105.9,94.1c-0.4,10.6-5.4,19.9-7.9,24.1c-0.2,0.1-0.4,0.3-0.6,0.4c0,0,0,0,0,0c0.4-1.4,0.8-3.6,0.3-6.8c-0.1-1.2-0.2-2.4-0.2-3.6
			c0-5.4,1-10.9,1-10.9c0,0,0-0.1,0.1-0.1c0,0,0,0,0,0c0,0,0,0,0,0c0,0,0,0,0,0c0.1-0.2,0.3-0.5,0.4-0.7c0,0,0,0,0,0c0,0,0,0,0-0.1
			c0.1-0.2,0.3-0.5,0.4-0.7c0,0,0,0,0,0c0.2-0.4,0.4-0.8,0.6-1.2c0-0.1,0.1-0.1,0.1-0.2c0,0,0,0,0,0c0-0.1,0.1-0.1,0.1-0.2
			c0,0,0,0,0,0c1.5-3.1,2.4-6,2.9-8.3c0.1-0.5,0.2-1,0.3-1.5c0-0.2,0.1-0.4,0.1-0.6c0.2-1.4,0.3-2.4,0.3-2.7c0,0,0,0,0,0
			c0,0,0-0.1,0-0.1c0,0,0,0,0,0c0.3,0.8,0.6,1.6,0.8,2.4C105.8,87,106.1,90.7,105.9,94.1z"/>
		
			<linearGradient id="SVGID_00000149351321199259463080000000528125631500061596_" gradientUnits="userSpaceOnUse" x1="97.218" y1="105.3742" x2="97.218" y2="51.0242">
			<stop  offset="3.351960e-02" style="stop-color:#84A1FF"/>
			<stop  offset="0.9829" style="stop-color:#5B72EC"/>
		</linearGradient>
		<path style="fill-rule:evenodd;clip-rule:evenodd;fill:url(#SVGID_00000149351321199259463080000000528125631500061596_);" d="
			M103.9,81L103.9,81c-0.1,1.1-0.3,2.1-0.5,3.1c-0.6,3.3-1.6,6.7-3.1,10c0,0.1-0.1,0.2-0.1,0.2c-0.2,0.4-0.5,0.9-0.7,1.4
			c-0.2,0.3-0.3,0.5-0.5,0.8c-0.1,0.2-0.2,0.4-0.4,0.7c0,0,0,0,0,0c-0.1,0.1-0.1,0.2-0.1,0.2c-2,3.3-4.7,6.1-8.1,8c0,0,0,0,0,0
			c0,0,0,0,0,0c0.2-0.5,8.9-18.8,7.7-30.1c-0.3-3-0.7-6-1-8.8l-0.1-0.6c-0.9-6.6-1.7-12-1.9-13.3l0-0.3l1.5-1.3
			c0,0,3.7,15.2,6.5,19.7c0.4,0.7,0.7,1.7,0.9,3.1C104.1,75.8,104.2,78.3,103.9,81z"/>
		<path class="st26" d="M64.5,79.1c0,0,3.8,1.4,8.6,0.3c4.8-1.1,5.8-6.5,5.8-6.5S72.5,77.6,64.5,79.1z"/>
		<path class="st26" d="M61.7,69.9c0,0,0.8-3.6,4.3-6c3.5-2.3,11.5,0.1,12.9,5.2C78.9,69.2,67.5,68.1,61.7,69.9z"/>
		
			<linearGradient id="SVGID_00000131336633090003527930000000967174053046436029_" gradientUnits="userSpaceOnUse" x1="70.2138" y1="79.3709" x2="70.2138" y2="65.2847">
			<stop  offset="0" style="stop-color:#FFFFFF"/>
			<stop  offset="1" style="stop-color:#BDBFFF"/>
		</linearGradient>
		<path style="fill-rule:evenodd;clip-rule:evenodd;fill:url(#SVGID_00000131336633090003527930000000967174053046436029_);" d="
			M62.7,78.2c1,1.2,5,1.7,9.4,0.4c4.4-1.3,6-3.7,6.5-4.8c0.5-1.1,0.5-4.2,0.4-4.7c-0.1-0.4-2.9-3.5-7.1-3.8c-3.5-0.3-8.7,1-10.2,4.6
			C60.9,71.9,61.8,77.2,62.7,78.2z"/>
		
			<linearGradient id="SVGID_00000003824603697543429490000015828842225362792835_" gradientUnits="userSpaceOnUse" x1="71.8299" y1="78.0684" x2="71.8299" y2="64.9263">
			<stop  offset="5.586590e-03" style="stop-color:#634F90"/>
			<stop  offset="1" style="stop-color:#3B0643"/>
		</linearGradient>
		
			<circle style="fill-rule:evenodd;clip-rule:evenodd;fill:url(#SVGID_00000003824603697543429490000015828842225362792835_);" cx="71.8" cy="71.5" r="6.6"/>
		<ellipse transform="matrix(0.9223 -0.3865 0.3865 0.9223 -22.034 33.4038)" class="st29" cx="72.1" cy="71.5" rx="4.7" ry="4.7"/>
		<path class="st30" d="M61.5,70.8c0,0,0.7-3.6,7.1-4.6c6.4-1,10.3,3,10.3,3s2.7-0.9,4.4-3.2c0,0-3,1.5-5,1c0,0-4.4-3.1-10-2.1
			C62.7,66,61.5,70.8,61.5,70.8z"/>
		<path class="st31" d="M61.9,76.3c0,0,0.1,2.9,0.6,3c0.5,0.1,3.4,0.1,3.4,0.1S62.8,79.2,61.9,76.3z"/>
		<path class="st32" d="M66.3,73.5c0,0.4-0.3,0.8-0.8,0.8c-0.4,0-0.8-0.3-0.8-0.8c0-0.4,0.3-0.8,0.8-0.8
			C66,72.7,66.3,73.1,66.3,73.5z"/>
		
			<linearGradient id="SVGID_00000152231833404516449450000006754173014013908883_" gradientUnits="userSpaceOnUse" x1="61.6072" y1="57.0852" x2="74.9846" y2="57.0852">
			<stop  offset="1.711450e-02" style="stop-color:#FF7288"/>
			<stop  offset="0.9665" style="stop-color:#FF11A1"/>
		</linearGradient>
		<path style="fill-rule:evenodd;clip-rule:evenodd;fill:url(#SVGID_00000152231833404516449450000006754173014013908883_);" d="
			M62.7,55.4c-1.2,0.1-1.7,2.3-0.2,3c1.5,0.7,7.3,0,8.7,0c1.5,0,3.4,0.6,3.8,0.3C75.3,58.5,68.8,54.9,62.7,55.4z"/>
		<path class="st34" d="M63.9,93.7c-0.1,0.1-1.3,2.4-3,4.4h0c-0.1,0.1-0.2,0.3-0.3,0.4c-0.8,0.9-1.7,1.8-2.5,2.3
			c-1.2,0.7-3.2,1.2-5.2,1.4c-0.7,0.1-1.4,0.1-2,0.2c0,0,0,0,0,0c-1.3,0.1-2.5,0-3.1-0.2c-0.2,0-0.3-0.1-0.4-0.2c0,0,0,0,0,0
			c0,0,0,0,0,0c0,0,0,0,0,0c0,0,0.2,0,0.6,0c0.7,0,2.1,0,3.8-0.2c1.2-0.2,2.5-0.5,3.9-0.9c1.3-0.4,2.5-1.2,3.6-2.1c0,0,0,0,0,0
			c0.2-0.2,0.4-0.4,0.7-0.6c0,0,0,0,0,0C62.2,96.2,63.8,93.8,63.9,93.7z"/>
		<path class="st34" d="M49.4,90.8c0,0-0.5-1.8,0.5-2.6c1-0.8,3.6-0.7,3.6-0.7S50.3,87.6,49.4,90.8z"/>
		
			<linearGradient id="SVGID_00000088841744817303713370000011325383387091415954_" gradientUnits="userSpaceOnUse" x1="49.4371" y1="89.1334" x2="53.4808" y2="89.1334">
			<stop  offset="5.586590e-03" style="stop-color:#9775BA"/>
			<stop  offset="1" style="stop-color:#FFEADB"/>
		</linearGradient>
		
			<path style="opacity:0.58;fill-rule:evenodd;clip-rule:evenodd;fill:url(#SVGID_00000088841744817303713370000011325383387091415954_);" d="
			M49.4,90.8c0,0,3.9,0.5,4-3.3C53.5,87.5,49.6,87.5,49.4,90.8z"/>
		
			<linearGradient id="SVGID_00000158722373547293572690000007423851213574046339_" gradientUnits="userSpaceOnUse" x1="39.2285" y1="83.2541" x2="58.813" y2="83.2541">
			<stop  offset="0" style="stop-color:#FFEADB"/>
			<stop  offset="0.9944" style="stop-color:#000000"/>
		</linearGradient>
		
			<path style="opacity:0.58;fill-rule:evenodd;clip-rule:evenodd;fill:url(#SVGID_00000158722373547293572690000007423851213574046339_);" d="
			M39.2,88.6c0,0,7.6-1,12.2-3s7.5-6.9,7.4-7.4c-0.1-0.5-12.5-0.1-12.5-0.1S40.2,84.5,39.2,88.6z"/>
		
			<linearGradient id="SVGID_00000047038047943309708870000003540601549287155639_" gradientUnits="userSpaceOnUse" x1="76.144" y1="56.2849" x2="76.144" y2="23.6318">
			<stop  offset="0" style="stop-color:#FFFFFF"/>
			<stop  offset="0.9944" style="stop-color:#8259AC"/>
		</linearGradient>
		
			<path style="opacity:0.79;fill-rule:evenodd;clip-rule:evenodd;fill:url(#SVGID_00000047038047943309708870000003540601549287155639_);" d="
			M90.4,55.2c-7.9,3.4-25.6-1.5-27.5-7.7c-0.4-1.4-0.8-3.3-1-5.3C63.6,55.4,76,53.1,76,53.1s-4.9-3.9-4.4-12.7
			c0.5-8.7,2.7-16.8,2.7-16.8C79,29.1,84.3,34.4,84.8,35c-0.6-0.5-5.6-5.5-6.2-5.4C77,30,73.4,35.5,77,45.3
			C80.6,55,90.4,55.2,90.4,55.2z"/>
		
			<linearGradient id="SVGID_00000116936555896679850070000009976074536516006322_" gradientUnits="userSpaceOnUse" x1="92.8388" y1="54.723" x2="92.8388" y2="29.3721">
			<stop  offset="1.711450e-02" style="stop-color:#FF9FA6"/>
			<stop  offset="1" style="stop-color:#FF88C7"/>
		</linearGradient>
		<path style="fill-rule:evenodd;clip-rule:evenodd;fill:url(#SVGID_00000116936555896679850070000009976074536516006322_);" d="
			M101.7,37.7c-0.7,3.7-1.5,7.5-2,8.9c-1,3-6.9,8.8-12.1,8.1c-4.2-0.6-4.7-3-4.7-3s0.2-0.8,0.6-2.1c0,0,0,0,0-0.1
			c1-3.4,3.3-9.8,7.2-13.7c5.4-5.4,11-6.6,11.8-6.3C103,29.6,102.5,33.6,101.7,37.7z"/>
		
			<linearGradient id="SVGID_00000127754668565765784640000005261748640249027996_" gradientUnits="userSpaceOnUse" x1="93.1412" y1="49.4084" x2="93.1412" y2="29.3721">
			<stop  offset="0" style="stop-color:#CAD6FF"/>
			<stop  offset="0.9944" style="stop-color:#9775BA"/>
		</linearGradient>
		
			<path style="opacity:0.58;fill-rule:evenodd;clip-rule:evenodd;fill:url(#SVGID_00000127754668565765784640000005261748640249027996_);" d="
			M101.7,37.7c-0.4-1-1.5-3.5-3-3.7c-1.9-0.3-11.3,5.3-15.1,15.4c1-3.4,3.3-9.8,7.2-13.7c5.4-5.4,11-6.6,11.8-6.3
			C103,29.6,102.5,33.6,101.7,37.7z"/>
		
			<linearGradient id="SVGID_00000165206837015535336900000004242512151280404658_" gradientUnits="userSpaceOnUse" x1="102.5568" y1="118.615" x2="102.5568" y2="51.0246">
			<stop  offset="0" style="stop-color:#FFFFFF"/>
			<stop  offset="0.9944" style="stop-color:#8259AC"/>
		</linearGradient>
		
			<path style="opacity:0.79;fill-rule:evenodd;clip-rule:evenodd;fill:url(#SVGID_00000165206837015535336900000004242512151280404658_);" d="
			M114.7,103c0,0.1-0.1,0.1-0.2,0.2c-0.1,0.1-0.1,0.1-0.2,0.2c0,0,0,0,0,0c-0.9,1.1-1.8,2.2-2.8,3.3c1.4-5.4,1.7-10.6,0-10.6
			c-1.3,0-2.7,1.8-3.9,3.7c-1.3,2.1-2.2,4.2-2.2,4.2c-1.9,6.3-4.8,11-6.8,13.8c-0.2,0.2-0.5,0.3-0.7,0.4c-0.2,0.1-0.4,0.3-0.6,0.4
			c1.3-2.8,3.6-8.1,5.3-14.1c2.6-8.7,2.6-13.9,1.2-13.7c-1.2,0.2-4.5,5.1-5.2,6.3c0,0,0,0,0,0c0,0,0,0.1,0,0.1c0,0,0,0,0,0
			c0,0,0,0,0,0c0,0,0,0,0,0c0,0,0,0,0,0c0,0,0,0,0,0c0,0,0,0,0,0.1c0,0,0,0,0,0c0,0,0,0,0,0c-2.7,5-7.2,7.5-8,8c0,0,0,0,0,0
			c0,0,0,0,0,0c0,0,0,0,0,0c0,0,0,0,0,0c0,0,0,0,0,0c5.8-4.4,10.8-13.3,12.1-21.1c0-0.1,0-0.2,0-0.2c0.3-1.8,0.4-3.5,0.2-5.1v0
			c-0.6-6.3-3.4-10-4.8-11.6v0c-0.6-0.6-0.9-0.9-0.9-0.9l-0.1-0.6L95,52.9l0,0l-0.1-0.6l0.1,0l0,0l0.8-0.7l0.5-0.4l0,0l0,0l0.2-0.1
			c0,0,0,0,0,0c0,0,0,0,0,0c0,0,0,0,0,0c0,0,0,0,0,0c0,0,0,0,0,0c0,0,0,0,0,0c0,0,0,0,0,0c0,0,0,0,0,0c0,0,0,0,0,0c0,0,0,0,0,0.1
			c0,0,0,0,0,0c0,0,0,0,0,0c0,0,0,0,0,0c0,0,0,0,0,0.1c0,0,0,0.1,0,0.1c0,0,0,0.1,0,0.1c0,0.1,0,0.1,0.1,0.2c0,0.1,0,0.1,0,0.2
			c0,0.1,0,0.1,0,0.2c0,0.1,0.1,0.3,0.1,0.4c0,0,0,0.1,0,0.1c0,0,0,0,0,0c0,0,0,0.1,0,0.1c0,0,0,0,0,0c0,0.1,0.1,0.2,0.1,0.3
			c0,0.1,0,0.1,0,0.2c0,0.1,0,0.1,0,0.2c0,0.1,0,0.1,0,0.2c0,0.1,0,0.1,0.1,0.2c0,0.1,0,0.1,0.1,0.2c0.1,0.4,0.2,0.7,0.3,1.1
			c0,0.1,0.1,0.2,0.1,0.3c0.1,0.2,0.1,0.5,0.2,0.7c0,0.1,0.1,0.2,0.1,0.4c0.1,0.2,0.1,0.4,0.2,0.6c0,0.1,0.1,0.3,0.1,0.4
			c0,0.1,0.1,0.2,0.1,0.3c0,0.1,0.1,0.2,0.1,0.3c0.1,0.3,0.2,0.5,0.2,0.8c0,0.1,0.1,0.2,0.1,0.4c0,0.1,0.1,0.2,0.1,0.4
			c0,0.1,0.1,0.2,0.1,0.3c0.1,0.2,0.1,0.4,0.2,0.7c0,0.1,0,0.1,0.1,0.2c0.1,0.2,0.1,0.4,0.2,0.6c0,0,0,0,0,0.1
			c0,0.1,0.1,0.3,0.1,0.4c0,0.2,0.1,0.3,0.1,0.5c0,0.1,0.1,0.2,0.1,0.3c0,0.1,0.1,0.2,0.1,0.3c0,0,0,0,0,0c0,0,0,0,0,0c0,0,0,0,0,0
			c0,0,0,0,0,0c0,0,0,0,0,0c0,0,0,0.1,0,0.1c0,0.1,0,0.1,0.1,0.2c0,0.1,0.1,0.3,0.1,0.4c0,0,0,0.1,0,0.1c0,0.1,0.1,0.2,0.1,0.4
			s0.1,0.2,0.1,0.4c0,0.1,0,0.1,0.1,0.2c0,0.1,0.1,0.2,0.1,0.2c0,0.1,0.1,0.2,0.1,0.4c0,0.1,0,0.1,0.1,0.2c0.1,0.2,0.1,0.4,0.2,0.6
			c0,0,0,0,0,0c0,0.1,0.1,0.2,0.1,0.3c0,0,0,0.1,0,0.1c0,0.1,0.1,0.2,0.1,0.3c0.1,0.2,0.1,0.4,0.2,0.5s0.1,0.4,0.2,0.5
			c0,0.1,0.1,0.2,0.1,0.3c0,0.1,0,0.1,0.1,0.2c0,0.1,0.1,0.2,0.1,0.3c0,0.1,0.1,0.2,0.1,0.3c0,0.1,0.1,0.1,0.1,0.2
			c0.1,0.1,0.1,0.2,0.2,0.3c0.1,0.1,0.1,0.2,0.2,0.3c0,0,0,0.1,0.1,0.1c0,0,0,0.1,0.1,0.1c0,0.1,0.1,0.1,0.1,0.2
			c0,0.1,0.1,0.1,0.1,0.2c0,0,0,0,0,0c0,0,0,0.1,0.1,0.1c0,0,0,0.1,0.1,0.1c0.1,0.1,0.1,0.2,0.2,0.3c0,0,0,0.1,0.1,0.1
			c0,0,0,0.1,0.1,0.1v0c0,0,0,0.1,0.1,0.1c0,0,0,0.1,0,0.1c0,0,0,0,0,0.1c0,0,0,0,0,0.1c0,0,0,0.1,0,0.1c0,0,0,0.1,0,0.1
			c0,0,0,0,0,0c0,0,0,0.1,0,0.1c0,0.1,0,0.1,0,0.2c0,0,0,0,0,0c0,0.1,0,0.1,0.1,0.2c0,0.1,0,0.2,0.1,0.2c0,0.1,0,0.1,0,0.2
			c0.1,0.3,0.1,0.6,0.2,1c0.1,0.2,1,1.3,2.3,3.2c0.9,1.4,2,3.1,3.1,5.1c2,3.6,4,8.1,4.8,12.3c0.5,2.7,0.7,5.5,0.5,8.2
			c0-0.1,0.1-0.2,0.1-0.2S114.7,102.7,114.7,103z"/>
		
			<linearGradient id="SVGID_00000127022221252594512280000001896171132542635179_" gradientUnits="userSpaceOnUse" x1="101.8495" y1="93.213" x2="101.8495" y2="62.907">
			<stop  offset="1.711450e-02" style="stop-color:#5BC9EC"/>
			<stop  offset="0.9665" style="stop-color:#84A1FF"/>
		</linearGradient>
		<path style="fill-rule:evenodd;clip-rule:evenodd;fill:url(#SVGID_00000127022221252594512280000001896171132542635179_);" d="
			M99.8,62.9c0,0,2,6.7,8.7,9.7c6.7,3,6.7,8.6-1.9,10.3c-8.6,1.7-16.3,10.3-16.3,10.3S94,85.1,99.4,81c4-3,9-4.2,8.3-6.2
			C107.2,73.2,101.4,73.6,99.8,62.9z"/>
		<path class="st42" d="M74.5,82.7c-1.1-1.1,5.4-7,7.6-6.4c2.2,0.6,1.1,5.4-1.5,6.4C78,83.7,75.3,83.5,74.5,82.7z"/>
		<path class="st32" d="M47.8,106.2c0,0-1.4,4.9-4.3,9.2c-0.9,1.3-2,2.5-3.2,3.6c-1.3,1.1-2.8,1.9-4.3,2.6c-0.7-0.3-1.4-0.7-2.1-1.1
			c-0.2-0.1-0.3-0.2-0.5-0.3c1.3-0.8,2.6-1.8,4.1-2.8C42.9,113.2,47.8,106.2,47.8,106.2z"/>
		<path class="st32" d="M47,22.6c0,0-0.8,3.3-1.2,7.8c-0.4,4.4,2,9.2,2,9.2s-4.1-3.9-3.4-9C45.1,25.6,47,22.6,47,22.6z"/>
		<path class="st32" d="M40.6,8.3c0,0-1.1,11.1,3.7,19.4C44.3,27.7,43,14.4,40.6,8.3z"/>
		<path class="st32" d="M52.5,37c0,0-3,3.1-3.8,5.3C48,44.6,49.8,48,49.8,48S49.7,42.3,52.5,37z"/>
		<path class="st32" d="M68.6,24.6c0,0-2.9,0.5-4.4,2.7c-1.5,2.2-4.1,14.9,0.9,21.6c0,0-2.8-7.4-0.9-15.6
			C66.1,25,68.6,24.6,68.6,24.6z"/>
		<path class="st32" d="M44.2,46.5c0,0-2.6,0.5-3,3.7c-0.5,3.3,1.5,7.2,1.5,7.2S41.1,51.9,44.2,46.5z"/>
		<path class="st32" d="M45.1,61.3c0,0-0.2,1.9,0,5.2c0.2,3.3,1.4,10.5,1.2,11.6c-0.2,1.1-6.1,7.1-6.6,10.5c-0.6,3.4,6,10.9,6,10.9
			s-4.3-7.8-3.6-11.4c0.7-3.7,6.2-7.9,6.4-10.1C48.7,75.7,45,69.5,45.1,61.3z"/>
		<path class="st30" d="M76.7,67.6c0,0,3-0.8,4.6-3.4c0,0-3,1.9-6.3,2.6L76.7,67.6z"/>
		<path class="st32" d="M112.8,99.2c0,0.4-0.3,3.9-1.2,7.7c-0.5,0.5-0.9,1-1.4,1.5c-0.3,0.3-0.6,0.6-0.9,0.9c0.3-0.5,0.5-1,0.7-1.4
			C112.2,103.1,112.7,99.5,112.8,99.2z"/>
		<path class="st32" d="M44.9,27.8c0,0-0.9,3.7-0.6,5.2C44.4,33,47.2,31.7,44.9,27.8z"/>
		<path class="st32" d="M48.7,42.5c0,0,0.6-2.1,2-2.8C50.7,39.7,51.2,42.5,48.7,42.5z"/>
		<path class="st32" d="M41.1,8.6c0,0,1.8,3.5,1.8,6.4c-0.1,2.9-1.1,4.6-1.1,4.6S39.7,13.7,41.1,8.6z"/>
		<path class="st43" d="M68.3,67.1l0.3,3.4c0,0,3.8,1.8,8.1,1.5l0.6-3.5C77.3,68.5,74.1,65.2,68.3,67.1z"/>
	</g>
</g>
</svg>
